<?xml version="1.0" encoding="UTF-8"?>
<svg width="60px" height="73px" viewBox="0 0 60 73" version="1.1" xmlns="http://www.w3.org/2000/svg" xmlns:xlink="http://www.w3.org/1999/xlink">
    <!-- Generator: Sketch 50.2 (55047) - http://www.bohemiancoding.com/sketch -->
    <title>Power Logo</title>
    <desc>Created with Sketch.</desc>
    <defs></defs>
    <g id="Page-1" stroke="none" stroke-width="1" fill="none" fill-rule="evenodd">
        <g id="Artboard-2" transform="translate(-62.000000, -15.000000)">
            <g id="Power-Logo" transform="translate(62.000000, 15.000000)">
                <path d="M30,9.63302752 L0.496908543,30.5411483 L0.464895487,30.5637453 C0.173247128,30.7704138 0,31.1056028 0,31.4631534 L0,31.4706858 L0,51.8322413 L0,51.8418921 C0,52.1982658 0.172776348,52.5322779 0.463483146,52.7382403 L0.496908543,52.7620142 L28.7573756,72.7895576 C29.2787647,73.1588776 30,72.7860269 30,72.1471905 L30,9.63302752 Z" id="Fill-98" fill="#0072CE"></path>
                <path d="M30,63.3027523 L59.5030915,42.3946315 C59.8267529,42.1656014 60,41.830177 60,41.4728618 L60,21.1035385 C60,20.737514 59.8272237,20.4035019 59.5365169,20.1975396 L31.2426244,0.146222179 C30.7212353,-0.223097736 30,0.149752962 30,0.788589322 L30,63.3027523 Z" id="Fill-100" fill="#00A3E0"></path>
                <path d="M26.1061541,43.4848587 C26.0793591,43.4896004 26.0541951,43.4820137 26.0374191,43.4637584 C26.0206431,43.445503 26.0141191,43.4189498 26.0197111,43.3912111 L26.176054,42.6278054 L26.176054,42.6256716 L23.9469432,32.5418404 C23.9413512,32.5159984 23.9476422,32.4875485 23.9646512,32.4628919 C23.9814272,32.4387095 24.0065912,32.4221137 24.0333862,32.4173721 L26.661626,31.9458149 C26.705197,31.9379912 26.741778,31.9628849 26.748768,32.0050856 L27.6693509,36.9743354 C27.6719139,36.9885603 27.6924179,36.9857153 27.6963789,36.970542 L28.8231668,32.425907 C28.8233998,32.4249587 28.8233998,32.4242475 28.8231668,32.4235362 L28.6621639,31.6959299 C28.6565719,31.6700879 28.6628628,31.641401 28.6798718,31.6169815 C28.6966478,31.592799 28.7218118,31.5762033 28.7486068,31.5714616 L31.2393766,31.1240869 L31.2412406,31.1240869 L31.3768466,31.0996674 C31.4204176,31.0920807 31.4569986,31.1169744 31.4639886,31.1591751 L32.3859696,36.1288991 C32.3887656,36.143124 32.4088036,36.140279 32.4125316,36.1253428 L33.5390865,31.5766774 C33.5390865,31.5762033 33.5393195,31.575492 33.5390865,31.5747808 L33.3787825,30.8500195 C33.3731905,30.8244146 33.3794815,30.7954905 33.3964905,30.771071 C33.4132665,30.7466515 33.4384305,30.7300557 33.4652255,30.7253141 L35.9634513,30.2765168 C35.9795283,30.2739089 36.0130803,30.2729606 36.0356813,30.297143 C36.0524573,30.3156354 36.0589813,30.343137 36.0526903,30.3713498 L33.4197905,42.0815672 C33.4176935,42.0912876 33.3969565,42.175689 33.3298525,42.1877802 L30.8213747,42.6389482 C30.7945797,42.6436899 30.7694157,42.6361033 30.7526397,42.6178479 C30.7356307,42.5995925 30.7293397,42.5730393 30.7349317,42.5450636 L30.8912747,41.7816578 C30.8915077,41.7809466 30.8915077,41.7804724 30.8912747,41.7797612 L29.9459937,37.9160272 C29.9406347,37.8939785 29.9087138,37.8994314 29.9028888,37.9233767 L28.7045698,42.9274777 C28.7010748,42.9431251 28.6801048,43.0215994 28.6069429,43.0348761 L26.1061541,43.4848587 Z" id="Fill-102" fill="#FFFFFF"></path>
                <path d="M18.5779817,45.0324869 C14.5763193,45.7321407 14.0366972,42.8187623 14.0366972,39.8766342 C14.0366972,38.6019869 14.1246145,36.9693827 14.8101318,35.6464266 C15.5213114,34.2739834 16.7538167,33.4517899 18.5779817,33.1327157 C22.5798816,32.4328262 23.1192661,35.3462047 23.1192661,38.2883328 C23.1192661,39.56298 23.0313488,41.1955842 22.3458315,42.518776 C21.6346519,43.8912193 20.4021466,44.7134127 18.5779817,45.0324869 M18.5779817,35.7597757 C17.074596,36.0227645 16.8208239,37.092158 16.8208239,39.389775 C16.8208239,41.6873921 17.074596,42.66818 18.5779817,42.4051912 C20.0813673,42.1424381 20.3351394,41.0730446 20.3351394,38.7754276 C20.3351394,36.4775749 20.0813673,35.4970226 18.5779817,35.7597757" id="Fill-104" fill="#FFFFFF"></path>
                <path d="M37.7948957,41.283032 C37.7680881,41.2877456 37.7429123,41.2802038 37.7261284,41.2620564 C37.7091114,41.2436732 37.7028174,41.2175126 37.708412,41.1897022 L37.8641293,40.4343436 L37.8641293,30.7424205 L37.708412,30.042447 C37.7028174,30.0167577 37.7091114,29.9882403 37.7261284,29.9642008 C37.7429123,29.9399256 37.7680881,29.9234279 37.7948957,29.9184786 L45.0476344,28.6252952 C45.0972867,28.6163393 45.1376147,28.6500418 45.1376147,28.7002419 L45.1376147,31.1454356 C45.1376147,31.1956357 45.0972867,31.2437147 45.0476344,31.2524349 L40.5218117,32.0594078 L40.5218117,33.6215036 L44.6198783,32.8911272 C44.6695306,32.8819356 44.7100917,32.9158737 44.7100917,32.9660738 L44.7100917,35.4258798 C44.7100917,35.4760799 44.6695306,35.5243946 44.6198783,35.5333505 L40.5218117,36.2637269 L40.5218117,38.1689747 L45.0476344,37.3622375 C45.0972867,37.3532816 45.1376147,37.3869841 45.1376147,37.4374199 L45.1376147,39.8823779 C45.1376147,39.932578 45.0972867,39.980657 45.0476344,39.9896129 L38.1447932,41.2201051 L38.1447932,41.2205765 L37.7948957,41.283032 Z" id="Fill-106" fill="#FFFFFF"></path>
                <path d="M4.76940803,47.0627659 C4.74197448,47.0676912 4.71621079,47.0599514 4.699035,47.0418918 C4.68185922,47.0238322 4.67517974,46.9975637 4.68090501,46.969888 L4.84383644,46.2022381 L4.84383644,36.5889069 L4.68090501,35.8773121 C4.67517974,35.8517472 4.68185922,35.8233679 4.699035,35.7992102 C4.71621079,35.7752871 4.74197448,35.7588693 4.76940803,35.753944 L8.76898123,35.0604088 C10.3999655,34.7775534 11.5760299,35.0599397 12.2647313,35.899828 C12.8487081,36.6118918 12.9357798,37.5704574 12.9357798,38.0784713 C12.9357798,38.5885961 12.8487081,39.5814045 12.2644927,40.4993946 C11.5760299,41.5815628 10.3997269,42.2736908 8.76898123,42.5563117 L7.60866129,42.7575471 L7.60866129,46.4799337 C7.60866129,46.5298907 7.56715314,46.5779714 7.51634143,46.5866494 L4.76940803,47.0627659 Z M7.60866129,40.1278831 L8.78401004,39.9240677 C9.64613921,39.7746656 10.0652762,39.3337301 10.0652762,38.5759309 C10.0652762,38.2975318 10.0652762,37.4501383 8.78401004,37.6722478 L7.60866129,37.8760632 L7.60866129,40.1278831 Z" id="Fill-108" fill="#FFFFFF"></path>
                <path d="M53.2763012,38.6465925 C53.2494538,38.6515073 53.2242406,38.643784 53.2074318,38.625763 C53.1903896,38.6075079 53.1840863,38.5815295 53.1896892,38.5539129 L53.2847056,38.0973023 L51.5146467,34.7973489 L50.4500901,34.9855164 L50.4500901,39.055225 C50.4500901,39.1050754 50.4094689,39.1528194 50.3597429,39.1617129 L48.0536705,39.5691752 L48.0536705,39.5696433 L47.7032539,39.6316637 C47.6764065,39.6363445 47.6511934,39.6288552 47.6343846,39.6110682 C47.6175758,39.5928132 47.611039,39.5666008 47.616642,39.5392182 L47.7737574,38.7837395 L47.7737574,29.1694069 L47.616642,28.4696296 C47.611039,28.4441193 47.6175758,28.4158005 47.6343846,28.3916945 C47.6511934,28.3678225 47.6764065,28.3512057 47.7032539,28.3465249 L51.6449149,27.649556 C54.3866151,27.1648607 55.6633826,28.0640395 55.6633826,30.4793246 C55.6633826,31.989814 55.2653412,32.9444601 54.3319865,33.6709179 L54.2621833,33.7254491 L56.6868511,37.910539 C56.7015588,37.9358152 56.700625,37.969985 56.6842831,37.999942 C56.6681747,38.029899 56.6385258,38.0516647 56.6070094,38.0572816 L53.6267177,38.584104 L53.6267177,38.5845721 L53.2763012,38.6465925 Z M50.4500901,32.3614683 L51.8218741,32.1190036 C52.790247,31.9476869 52.8689215,31.4987996 52.8689215,30.9731475 C52.8689215,30.463644 52.790247,30.0557136 51.8218741,30.2270303 L50.4500901,30.469729 L50.4500901,32.3614683 Z" id="Fill-110" fill="#FFFFFF"></path>
            </g>
        </g>
    </g>
</svg>