<svg width="233" height="80" viewBox="0 0 233 80" fill="none" xmlns="http://www.w3.org/2000/svg">
<path fill-rule="evenodd" clip-rule="evenodd" d="M0 25.363V54.637C0 61.7953 0.164757 68.7097 5.74165 74.2727C11.3185 79.8357 18.2503 80 25.4265 80H54.7739C61.9501 80 68.8818 79.8357 74.4587 74.2727C80.0356 68.7097 80.2003 61.7953 80.2003 54.637V47.4013C80.2003 47.037 80.2003 46.813 80.2003 46.1728C80.2003 45.5327 80.2003 44.9444 80.2003 44.9444V25.363C80.2003 18.2047 80.0356 11.2903 74.4587 5.72731C68.8818 0.164346 61.9501 0 54.7739 0H25.4265C18.2503 0 11.3185 0.164346 5.74165 5.72731C0.164757 11.2903 0 18.2047 0 25.363ZM77.725 44.9383V25.363C77.725 18.107 77.4742 12.2272 72.7084 7.47325C67.9425 2.71934 62.048 2.46914 54.7739 2.46914H25.4265C18.1523 2.46914 12.2578 2.71934 7.49196 7.47325C2.72615 12.2272 2.47532 18.107 2.47532 25.363V44.9444C2.51603 44.9403 2.55731 44.9383 2.59908 44.9383H19.8579V37.6686H13.908C13.3628 37.6686 12.8818 37.3127 12.7236 36.7923C12.5654 36.2718 12.7673 35.7093 13.2208 35.4073L24.9365 27.6045C25.14 27.469 25.3791 27.3967 25.6237 27.3967H37.0537L35.4146 26.1738C34.9877 25.8554 34.8132 25.3001 34.9814 24.7956C35.1496 24.291 35.6228 23.9506 36.1558 23.9506H57.5779C57.8976 23.9506 58.2049 24.074 58.4355 24.295L70.1699 35.5439C70.5341 35.893 70.6491 36.4278 70.4604 36.8952C70.2718 37.3625 69.8174 37.6686 69.3123 37.6686H63.6247V44.9383H77.725ZM2.47532 47.4013V54.637C2.47532 61.893 2.72615 67.7728 7.49196 72.5267C12.2578 77.2807 18.1523 77.5309 25.4265 77.5309H54.7739C62.048 77.5309 67.9425 77.2807 72.7084 72.5267C77.4742 67.7728 77.725 61.893 77.725 54.637V47.4074H62.387C61.7035 47.4074 61.1494 46.8547 61.1494 46.1728V36.4341C61.1494 35.7522 61.7035 35.1995 62.387 35.1995H66.2383L57.0796 26.4198H39.8772L41.5164 27.6426C41.9433 27.961 42.1178 28.5163 41.9496 29.0209C41.7813 29.5254 41.3082 29.8658 40.7751 29.8658H25.999L17.9906 35.1995H21.0956C21.7791 35.1995 22.3332 35.7522 22.3332 36.4341V46.1728C22.3332 46.8547 21.7791 47.4074 21.0956 47.4074H2.59908C2.55731 47.4074 2.51603 47.4053 2.47532 47.4013Z" fill="#172257"/>
<path d="M214.484 68.5714V35.5047H232.905V39.3783H218.698V49.4872H231.911V53.3135H218.698V64.6979H233V68.5714H214.484Z" fill="#172257"/>
<path d="M186.604 65.6899V60.6826C189.351 63.139 193.092 65.0758 196.975 65.0758C200.385 65.0758 204.174 63.4697 204.174 59.5017C204.174 55.7699 200.717 54.7306 196.928 53.7386C192.05 52.5104 186.557 50.9516 186.557 44.2438C186.557 38.2445 191.814 34.9379 197.354 34.9379C201.143 34.9379 204.363 36.0716 207.252 38.1501V43.0156C204.553 40.6537 201.238 38.9059 197.354 38.9059C194.324 38.9059 190.819 40.6064 190.819 44.0076C190.819 47.9756 194.655 49.0148 198.775 50.1013C203.416 51.3295 208.436 53.2663 208.436 59.2655C208.436 65.6899 202.848 69.091 197.023 69.091C193.282 69.091 189.541 67.9573 186.604 65.6899Z" fill="#172257"/>
<path d="M166.989 35.5047H171.203V64.6506H183.042V68.5714H166.989V35.5047Z" fill="#172257"/>
<path d="M146.279 69.091C138.086 69.091 133.587 63.5642 133.587 55.392V35.5047H137.802V55.3447C137.802 61.155 140.738 65.123 146.279 65.123C151.772 65.123 154.708 61.155 154.708 55.3447V35.5047H158.923V55.392C158.923 63.5642 154.472 69.091 146.279 69.091Z" fill="#172257"/>
<path d="M117.653 35.5047C123.952 35.5047 128.356 39.0004 128.356 45.0468C128.356 51.0933 123.952 54.5417 117.653 54.5417H111.592V68.5714H107.377V35.5047H117.653ZM111.592 39.3783V50.6682H117.653C121.442 50.6682 124.094 48.5897 124.094 45.0468C124.094 41.4095 121.442 39.3783 117.653 39.3783H111.592Z" fill="#172257"/>
<path d="M170.718 19.2305V16.9905H179.059V19.2305H176.107V28.1905H173.685V19.2305H170.718Z" fill="#172257"/>
<path d="M159.704 22.5905C159.704 19.3105 162.27 16.7825 165.51 16.7825C166.489 16.7825 167.483 17.0385 168.366 17.5345V20.1265C167.515 19.4865 166.633 19.1345 165.591 19.1345C163.634 19.1345 162.19 20.6545 162.19 22.5905C162.19 24.4945 163.57 26.0305 165.591 26.0305C166.617 26.0305 167.499 25.6945 168.382 25.0705V27.6465C167.403 28.1905 166.377 28.3985 165.478 28.3985C162.078 28.3985 159.704 25.9185 159.704 22.5905Z" fill="#172257"/>
<path d="M150.699 28.1905V16.9905H157.307V19.1665H153.105V21.4385H156.938V23.5505H153.105V26.0145H157.339V28.1905H150.699Z" fill="#172257"/>
<path d="M143.536 28.3985C142.75 28.3985 141.868 28.2545 141.194 27.8545V25.3105C141.836 25.7905 142.654 26.0945 143.36 26.0945C144.402 26.0945 144.899 25.4705 144.899 24.4145V16.9905H147.337V24.6065C147.337 26.9425 145.91 28.3985 143.536 28.3985Z" fill="#172257"/>
<path d="M139.271 22.5905C139.271 25.8225 136.656 28.3985 133.4 28.3985C130.144 28.3985 127.529 25.8225 127.529 22.5905C127.529 19.3585 130.144 16.7825 133.4 16.7825C136.656 16.7825 139.271 19.3585 139.271 22.5905ZM136.8 22.5905C136.8 20.6545 135.309 19.1185 133.4 19.1185C131.491 19.1185 129.999 20.6545 129.999 22.5905C129.999 24.5265 131.491 26.0625 133.4 26.0625C135.309 26.0625 136.8 24.5265 136.8 22.5905Z" fill="#172257"/>
<path d="M119.583 24.0945V28.1905H117.193V16.9905H120.93C123.352 16.9905 125.036 18.2865 125.036 20.5745C125.036 22.1745 124.074 23.2945 122.726 23.8065L125.822 28.1905H122.983L120.224 24.0945H119.583ZM119.583 19.1505V22.1105H120.946C121.908 22.1105 122.614 21.5505 122.614 20.6225C122.614 19.6785 121.908 19.1505 120.946 19.1505H119.583Z" fill="#172257"/>
<path d="M106.593 16.9905H110.411C112.849 16.9905 114.533 18.3025 114.533 20.6065C114.533 22.8945 112.849 24.2225 110.411 24.2225H108.999V28.1905H106.593V16.9905ZM108.999 19.1505V22.0945H110.459C111.421 22.0945 112.111 21.5505 112.111 20.6225C112.111 19.6945 111.421 19.1505 110.459 19.1505H108.999Z" fill="#172257"/>
</svg>
