<svg width="228" height="38" viewBox="0 0 228 38" fill="none" xmlns="http://www.w3.org/2000/svg">
<path d="M2.47831 8.77447H12.4377C13.9645 8.9987 14.5884 9.81077 14.5884 10.827C14.5883 12.0112 13.5696 12.9821 12.5517 12.9821H4.52694C4.41216 13.0367 4.28945 13.1203 4.28938 13.2897V33.4032C4.34461 33.5725 4.35749 33.7213 4.52694 33.7213H25.1122C25.2821 33.6662 25.3957 33.5721 25.4503 33.4578V25.6834C25.6198 24.4396 26.1556 23.4836 27.3433 23.4834C28.5859 23.4834 29.2728 24.6682 29.2728 25.6834V35.5433C29.2728 36.7342 28.0221 38 27.0037 38H2.2065C0.963599 37.9459 0 36.6199 0 35.6046V11.348C0.0561795 11.1779 0.0558513 10.8605 0.0558513 10.6915C0.0559071 9.79016 1.68495 8.66011 2.47831 8.77447Z" fill="white"/>
<path fill-rule="evenodd" clip-rule="evenodd" d="M79.8882 18.2309C84.9275 18.2309 88.6293 22.0903 88.6293 26.8272V26.8908C88.6292 31.5971 84.8961 35.5178 79.8257 35.5178C74.8173 35.5177 71.1159 31.6582 71.1159 26.9529V26.8908C71.1159 22.1528 74.8485 18.2309 79.8882 18.2309ZM79.8257 21.5574C76.8086 21.5575 74.8795 23.9409 74.8795 26.8272V26.8908C74.8796 29.7771 76.9639 32.1928 79.8882 32.1928C82.8413 32.1928 84.7436 29.9545 84.8598 27.2194L84.8657 26.9529V26.8908C84.8657 23.9717 82.7813 21.5574 79.8257 21.5574Z" fill="white"/>
<path fill-rule="evenodd" clip-rule="evenodd" d="M99.7363 18.2309C104.776 18.2309 108.477 22.0903 108.477 26.8272V26.8908C108.477 31.5971 104.744 35.5178 99.6738 35.5178C94.6654 35.5177 90.964 31.6582 90.9639 26.9529V26.8908C90.9639 22.1528 94.6967 18.2309 99.7363 18.2309ZM99.6745 21.5574C96.6573 21.5574 94.7276 23.9409 94.7276 26.8272V26.8908C94.7276 29.777 96.812 32.1927 99.7363 32.1928C102.689 32.1928 104.592 29.9545 104.708 27.2194L104.714 26.9529V26.8908C104.714 23.9718 102.63 21.5576 99.6745 21.5574Z" fill="white"/>
<path fill-rule="evenodd" clip-rule="evenodd" d="M170.417 18.2309C175.458 18.2309 179.158 22.0903 179.158 26.8272V26.8908C179.158 31.5971 175.425 35.5178 170.355 35.5178C165.347 35.5177 161.644 31.6582 161.644 26.9529V26.8908C161.644 22.1528 165.377 18.2309 170.417 18.2309ZM170.355 21.5574C167.338 21.5575 165.409 23.9409 165.409 26.8272V26.8908C165.409 29.777 167.494 32.1927 170.417 32.1928C173.466 32.1928 175.395 29.8076 175.395 26.9529V26.8908C175.395 23.9717 173.31 21.5574 170.355 21.5574Z" fill="white"/>
<path fill-rule="evenodd" clip-rule="evenodd" d="M188.929 18.3566C191.385 18.3567 193.22 19.0152 194.371 20.2078C195.584 21.4001 196.145 23.1568 196.145 25.3219V33.4788C196.145 34.5144 195.336 35.2985 194.31 35.2985C193.22 35.2983 192.473 34.5454 192.473 33.6988V33.0708C191.355 34.42 189.643 35.4864 187.124 35.4864C184.043 35.4862 181.305 33.6991 181.305 30.3738V30.3102C181.305 26.7335 184.074 24.9768 188.088 24.9768C189.923 24.9768 191.229 25.2584 192.505 25.6669V25.259C192.505 22.9057 191.073 21.651 188.43 21.651C186.999 21.651 185.817 21.9014 184.79 22.309C184.572 22.3723 184.385 22.4033 184.199 22.4033C183.328 22.4033 182.614 21.7136 182.614 20.8343C182.614 20.1448 183.08 19.5485 183.638 19.329C185.194 18.7326 186.782 18.3566 188.929 18.3566ZM188.833 27.3923C186.407 27.3923 184.977 28.4268 184.977 30.153V30.2159C184.977 31.8153 186.376 32.7257 188.181 32.7257C190.593 32.7257 192.449 31.3711 192.563 29.3752L192.568 29.1806V28.0511C191.602 27.6752 190.328 27.3923 188.833 27.3923Z" fill="white"/>
<path fill-rule="evenodd" clip-rule="evenodd" d="M226.102 12.0808C227.159 12.0808 228 12.8975 228 13.9641V33.4159C228 34.4831 227.159 35.2985 226.135 35.2985C225.075 35.2984 224.237 34.4832 224.237 33.4159V32.3814C223.024 34.1065 221.313 35.4863 218.637 35.4864C214.779 35.4864 211.015 32.3813 211.015 26.8908V26.8272C211.015 21.3365 214.718 18.2309 218.637 18.2309C221.343 18.2309 223.054 19.5799 224.237 21.1487V13.9641C224.237 12.8975 225.075 12.081 226.102 12.0808ZM219.538 21.5245C216.956 21.5245 214.811 23.5324 214.811 26.8272V26.8908C214.811 30.0905 216.988 32.1928 219.538 32.1928C222.058 32.1927 224.297 30.0589 224.297 26.8908V26.8272C224.297 23.6264 222.058 21.5245 219.538 21.5245Z" fill="white"/>
<path d="M65.7958 12.0808C66.8531 12.0808 67.6933 12.9285 67.6933 13.9641V33.4159C67.6933 34.4831 66.8531 35.2985 65.7958 35.2985C64.7691 35.2984 63.9289 34.4832 63.9289 33.4159V13.9641C63.9289 12.9285 64.7383 12.0809 65.7958 12.0808Z" fill="white"/>
<path d="M130.939 18.2309C134.516 18.2309 136.693 20.521 136.694 24.5681V33.4159C136.694 34.4831 135.886 35.2985 134.827 35.2985C133.769 35.2984 132.931 34.4832 132.931 33.4159V25.7291C132.931 23.0932 131.718 21.6817 129.601 21.6817C127.549 21.6817 126.086 23.1251 126.086 25.7919V33.4159C126.086 34.483 125.247 35.2983 124.22 35.2985C123.163 35.2985 122.322 34.4832 122.322 33.4159V25.6976C122.322 23.1249 121.079 21.6818 118.995 21.6817C116.909 21.6817 115.478 23.2508 115.478 25.7919V33.4159C115.478 34.4831 114.638 35.2985 113.581 35.2985C112.554 35.2985 111.714 34.4832 111.714 33.4159V20.3013C111.714 19.2346 112.523 18.3873 113.581 18.3873C114.638 18.3873 115.478 19.2346 115.478 20.3013V21.0851C116.535 19.6108 117.968 18.2309 120.487 18.2309C122.851 18.2309 124.532 19.3914 125.403 21.1487C126.709 19.3915 128.45 18.231 130.939 18.2309Z" fill="white"/>
<path d="M207.967 18.3566C209.148 18.3567 209.833 19.1407 209.833 20.2385C209.833 21.2424 209.18 21.9017 208.34 22.0589C205.664 22.5298 203.829 24.6 203.829 28.5219V33.4159C203.829 34.4505 202.989 35.2984 201.932 35.2985C200.905 35.2985 200.066 34.4832 200.066 33.4159V20.3013C200.066 19.2346 200.874 18.3873 201.932 18.3873C202.989 18.3875 203.829 19.2347 203.829 20.3013V21.9961C204.7 19.9249 206.319 18.3566 207.967 18.3566Z" fill="white"/>
<path fill-rule="evenodd" clip-rule="evenodd" d="M52.0452 13.1797C54.5338 13.1797 56.4932 13.8694 57.7376 15.1244C58.7017 16.0968 59.1994 17.2898 59.1994 18.7646V18.8267C59.1994 21.4622 57.7069 22.8747 56.0896 23.7215C58.6404 24.5998 60.4125 26.0746 60.4125 29.0549V29.117C60.4125 33.0389 57.2086 35.1413 52.3558 35.1413H44.2052C43.1169 35.1412 42.2765 34.2944 42.2765 33.1966V15.1244C42.2767 14.0267 43.1169 13.1797 44.2052 13.1797H52.0452ZM46.0409 31.7219H52.3878C55.0003 31.7218 56.587 30.6859 56.5871 28.7098V28.6476C56.5871 26.797 55.1243 25.6976 52.1071 25.6976H46.0409V31.7219ZM46.0409 22.4355H51.2678C53.7248 22.4354 55.374 21.4618 55.374 19.454V19.3911C55.3738 17.6658 54.0047 16.5991 51.5478 16.599H46.0409V22.4355Z" fill="white"/>
<path fill-rule="evenodd" clip-rule="evenodd" d="M150.88 13.1797C153.369 13.1797 155.33 13.8693 156.573 15.1244C157.537 16.0968 158.035 17.2898 158.035 18.7646V18.8267C158.035 21.4622 156.542 22.8747 154.924 23.7215C157.476 24.5998 159.248 26.0746 159.249 29.0549V29.117C159.249 33.0388 156.044 35.1412 151.192 35.1413H143.041C141.952 35.1412 141.113 34.2944 141.112 33.1966V15.1244C141.113 14.0267 141.952 13.1797 143.041 13.1797H150.88ZM144.877 31.7219H151.222C153.836 31.7219 155.423 30.686 155.423 28.7098L155.422 28.6476C155.422 26.797 153.96 25.6976 150.942 25.6976H144.877V31.7219ZM144.877 22.4355H150.102C152.56 22.4355 154.209 21.4619 154.209 19.454V19.3911C154.209 17.6657 152.84 16.599 150.383 16.599H144.877V22.4355Z" fill="white"/>
<path d="M27.359 0C27.932 0.000792993 28.4115 3.29309 28.5601 7.7789C31.8342 4.70622 34.5188 2.67995 34.9346 3.04359C35.3547 3.41175 33.3145 6.11535 30.1679 9.44517C34.6723 9.58105 38.0102 10.0468 38.0444 10.6009C38.0731 11.1549 34.8282 11.6202 30.3712 11.7642C33.387 14.985 35.3377 17.6219 34.9473 18.0565C34.5486 18.4975 31.8597 16.5208 28.5601 13.4402C28.4159 17.9258 27.9321 21.222 27.359 21.2228C26.7185 21.2228 26.1877 17.1012 26.1198 11.8031C20.8871 11.727 16.8664 11.2146 16.8991 10.6009C16.9289 10.0556 20.1694 9.59817 24.5679 9.45415C21.5178 6.19633 19.5672 3.55126 20.0082 3.15662C20.4361 2.77213 23.007 4.65575 26.163 7.57979C26.3197 3.19519 26.7945 0 27.359 0Z" fill="white"/>
</svg>
