<svg width="57" height="31" viewBox="0 0 57 31" fill="none" xmlns="http://www.w3.org/2000/svg">
<path d="M18.0299 22.7734C19.4887 22.7735 20.8953 23.8592 20.7525 25.4961L20.7467 25.5615L20.1187 28.4062C19.9465 29.9008 18.5219 30.8845 17.1129 30.8848H11.5894C10.1304 30.8847 8.72365 29.7993 8.86678 28.1621L8.87264 28.0986L9.50057 25.2529C9.67276 23.7587 11.0974 22.7736 12.5054 22.7734H18.0299Z" fill="#4323D2"/>
<path fill-rule="evenodd" clip-rule="evenodd" d="M47.1939 3.1082e-10C53.4352 0.00010323 56.104 4.02307 56.1041 7.72168C56.1041 11.6514 52.8218 15.2582 49.1695 15.582C52.1743 16.4144 53.562 19.0957 53.5621 21.6846C53.562 25.753 50.7416 30.8845 42.6051 30.8848H23.232C23.2394 30.8511 29.4887 2.5489 29.7086 1.61328C29.928 0.679586 30.4725 -1.67839e-05 31.7457 3.1082e-10C33.0209 1.67778e-05 47.1939 3.1082e-10 47.1939 3.1082e-10ZM34.2828 23.1182H41.6334C43.2052 23.1181 44.2681 22.2388 44.2681 20.9443C44.2679 19.9275 43.5745 19.1875 42.5113 19.1875H35.1607L34.2828 23.1182ZM36.8717 11.4209H43.898C45.6549 11.4209 46.1646 10.3107 46.1646 9.33984C46.1644 8.50781 45.609 7.81446 44.4996 7.81445H37.7496L36.8717 11.4209Z" fill="#4323D2"/>
<path d="M20.2252 11.3867C21.7178 11.3871 23.126 12.5035 22.983 14.1523L22.9771 14.2188L22.3521 16.9785C22.1778 18.4872 20.7438 19.4978 19.3053 19.498H6.79061C5.29805 19.4979 3.88926 18.382 4.03182 16.7334L4.0367 16.666L4.66365 13.9072C4.83795 12.3984 6.27085 11.3868 7.70955 11.3867H20.2252Z" fill="#4323D2"/>
<path d="M22.8551 3.1082e-10C24.3221 0.000297158 25.7654 1.07225 25.6187 2.72266L25.6138 2.78809L24.9752 5.63379C24.7999 7.13825 23.3407 8.11132 21.9234 8.11133H2.774C1.30666 8.11131 -0.136521 7.03848 0.0103321 5.3877L0.0152149 5.32227L0.650957 2.47656C0.8277 0.973885 2.28346 6.07353e-05 3.70271 3.1082e-10H22.8551Z" fill="#4323D2"/>
</svg>
