<svg width="272" height="73" viewBox="0 0 272 73" fill="none" xmlns="http://www.w3.org/2000/svg">
<path d="M29.1387 26.4624L35.8692 33.7477L34.2253 35.2789L30.2591 30.9642V43.4938C30.2591 44.1139 29.7571 44.6165 29.1363 44.6165C28.5168 44.6165 28.0142 44.1139 28.0142 43.4938V30.9684L24.0678 35.2789L22.4238 33.7477L29.1387 26.4624Z" fill="#2F314E"/>
<path fill-rule="evenodd" clip-rule="evenodd" d="M43.4885 29.6226C39.6014 29.6226 36.4497 32.7737 36.4497 36.6607C36.4497 40.549 39.6014 43.7001 43.4885 43.7001C47.3755 43.7001 50.5266 40.549 50.5266 36.6607C50.5266 32.7737 47.3755 29.6226 43.4885 29.6226ZM43.4884 31.9437C46.0895 31.9437 48.2055 34.0596 48.2055 36.6608C48.2055 39.2626 46.0895 41.3791 43.4884 41.3791C40.8866 41.3791 38.7707 39.2626 38.7707 36.6608C38.7707 34.0596 40.8866 31.9437 43.4884 31.9437Z" fill="#2F314E"/>
<path d="M21.8433 32.3099L20.2023 30.6689L15.8517 35.0196L11.501 30.6689L9.86011 32.3099L14.2102 36.6605L9.86011 41.0118L11.501 42.6527L15.8517 38.3015L20.2023 42.6527L21.8433 41.0118L17.4926 36.6605L21.8433 32.3099Z" fill="#2F314E"/>
<path fill-rule="evenodd" clip-rule="evenodd" d="M26.2263 4.31107C26.2263 1.93422 28.1497 0 30.5145 0C31.4268 0 32.2994 0.287284 33.0371 0.828267L57.7424 18.932L57.755 18.941L57.7664 18.95L57.7868 18.965C58.9533 19.8262 59.6484 21.2081 59.6484 22.6763V41.0889C59.6484 42.5415 58.9587 43.9191 57.8006 44.7816L57.7892 44.7906L57.7664 44.808L57.7424 44.8248L33.4234 62.6472V68.688C33.4234 71.0654 31.4993 73.0002 29.1339 73.0002C28.2222 73.0002 27.3496 72.713 26.6113 72.1714L1.90603 54.0677L1.89284 54.0581L1.88024 54.0485L1.85865 54.0329C0.693921 53.1704 0 51.7892 0 50.324V31.9108C0 30.4587 0.689123 29.0817 1.84666 28.2193L1.85985 28.2091L1.88264 28.1923L1.90603 28.1749L26.2263 10.353V4.31107ZM30.91 3.73135C30.7858 3.63959 30.6491 3.5988 30.5148 3.5988C30.1573 3.5988 29.825 3.89149 29.825 4.31132V12.1772L4.0336 31.0774L4.00541 31.0989C3.75052 31.2849 3.59878 31.5877 3.59878 31.911V50.3338C3.59878 50.6553 3.74932 50.957 4.00421 51.1435L4.0336 51.1657L28.7383 69.2688C28.863 69.36 29.0004 69.4019 29.1341 69.4019C29.4916 69.4019 29.825 69.1093 29.825 68.6882V60.823L55.6159 41.9222L55.6434 41.9018C55.8983 41.7153 56.0501 41.413 56.0501 41.0891V22.6669C56.0501 22.3455 55.8995 22.0426 55.6452 21.8567L55.6159 21.8351L30.91 3.73135Z" fill="#2F314E"/>
<path fill-rule="evenodd" clip-rule="evenodd" d="M77.995 37.7292V48.4561H69.7583V16.5149H85.7528C92.936 16.5149 96.8628 21.3516 96.8628 27.146C96.8628 32.8925 92.936 37.7292 85.7528 37.7292H77.995ZM77.9949 30.5457H84.5077C86.7105 30.5457 88.4824 29.3007 88.4824 27.1457C88.4824 24.9429 86.7105 23.6978 84.5077 23.6978H77.9949V30.5457Z" fill="#2F314E"/>
<path d="M107.721 48.4561V16.5149H100.347V48.4561H107.721Z" fill="#2F314E"/>
<path fill-rule="evenodd" clip-rule="evenodd" d="M134.096 33.9938V48.4559H126.721V46.1573C125.284 47.8813 122.507 49.0306 119.538 49.0306C115.994 49.0306 111.588 46.5883 111.588 41.4164C111.588 35.961 115.765 34.0468 119.256 33.9498L119.538 33.9459C122.603 33.9459 125.332 34.9516 126.721 36.6755V34.3769C126.721 32.3656 124.997 30.9769 122.028 30.9769C119.729 30.9769 117.431 31.8867 115.563 33.467L112.833 28.343C115.802 25.805 119.777 24.7514 123.321 24.7514C128.876 24.7514 134.096 26.8106 134.096 33.9938ZM122.602 44.1937C120.687 44.1937 118.915 43.3317 118.915 41.5119C118.915 39.6922 120.687 38.8302 122.602 38.8302C124.231 38.8302 125.955 39.357 126.721 40.4584V42.5176C125.955 43.619 124.231 44.1937 122.602 44.1937Z" fill="#2F314E"/>
<path d="M142.129 57.8416C141.458 57.8416 139.734 57.698 138.968 57.4585L140.022 50.8979C140.549 51.1852 141.267 51.3289 141.842 51.3289C143.518 51.3289 144.571 50.9937 145.002 50.0359L145.529 48.7908L136.287 25.3258H144.044L149.312 39.9794L154.532 25.3258H162.338L151.809 51.9861C149.982 56.5296 146.728 57.6758 142.543 57.8296L142.129 57.8416Z" fill="#2F314E"/>
<path fill-rule="evenodd" clip-rule="evenodd" d="M171.903 45.7744V48.4561H164.528V16.5149H171.903V28.0559C173.723 25.7573 176.213 24.7516 178.751 24.7516C184.545 24.7516 188.951 29.301 188.951 36.8672C188.951 44.7208 184.449 49.0308 178.751 49.0308C176.165 49.0308 173.818 47.9772 171.903 45.7744ZM171.903 40.4585V33.3711C172.813 32.126 174.728 31.264 176.309 31.264C179.23 31.264 181.433 33.419 181.433 36.8669C181.433 40.3627 179.23 42.5177 176.309 42.5177C174.728 42.5177 172.813 41.7036 171.903 40.4585Z" fill="#2F314E"/>
<path fill-rule="evenodd" clip-rule="evenodd" d="M203.88 49.0306C211.83 49.0306 216.523 43.3798 216.523 36.8671C216.523 30.3543 211.83 24.7514 203.88 24.7514C196.027 24.7514 191.334 30.3543 191.334 36.8671C191.334 43.3798 196.027 49.0306 203.88 49.0306ZM198.9 36.8669C198.9 39.9796 200.72 42.5177 203.88 42.5177C207.137 42.5177 208.956 39.9796 208.956 36.8669C208.956 33.8021 207.137 31.264 203.88 31.264C200.72 31.264 198.9 33.8021 198.9 36.8669Z" fill="#2F314E"/>
<path fill-rule="evenodd" clip-rule="evenodd" d="M231.451 49.0306C239.401 49.0306 244.094 43.3798 244.094 36.8671C244.094 30.3543 239.401 24.7514 231.451 24.7514C223.598 24.7514 218.905 30.3543 218.905 36.8671C218.905 43.3798 223.598 49.0306 231.451 49.0306ZM226.471 36.8669C226.471 39.9796 228.291 42.5177 231.451 42.5177C234.708 42.5177 236.528 39.9796 236.528 36.8669C236.528 33.8021 234.708 31.264 231.451 31.264C228.291 31.264 226.471 33.8021 226.471 36.8669Z" fill="#2F314E"/>
<path d="M271.713 48.4561H262.615L257.538 40.2673L255.336 42.9011V48.4561H247.961V16.5149H255.336V34.5686L262.375 25.3263H271.282L262.758 35.8616L271.713 48.4561Z" fill="#2F314E"/>
</svg>
