<svg width="267" height="48" viewBox="0 0 267 48" fill="none" xmlns="http://www.w3.org/2000/svg">
<path d="M7.6898 0C7.93071 0 8.08776 0.251888 7.98601 0.470076C7.92252 0.607654 7.96567 0.770731 8.08475 0.864708C9.50466 1.98539 9.72363 2.67002 9.00241 4.19006C8.38355 5.49468 8.33443 7.01294 7.92503 8.39753C7.78361 8.87564 7.54626 9.32496 7.23097 9.74973C6.86466 10.243 6.60285 10.8236 6.26103 11.3341C6.10195 11.5716 5.90394 11.7824 5.69766 11.9869C5.24862 12.4321 5.08201 13.1002 5.38402 13.6554C5.78319 14.388 6.64611 13.8814 7.25711 13.313C8.10786 12.5226 9.35936 12.6122 10.5677 12.6079C11.0765 12.6061 11.5402 12.3375 11.8309 11.9202C12.3105 11.231 12.1312 10.283 11.2966 10.3794C10.1811 10.5083 8.9693 11.1089 8.57843 9.7004C8.24079 8.48313 9.2051 6.94373 9.62968 5.56257C10.7799 1.83878 11.4677 1.68103 14.2674 4.46572C14.4657 4.66421 14.6205 4.90561 14.8191 5.1041C17.7486 7.99139 17.746 7.98192 14.2529 9.68879C13.7125 9.95296 13.8264 10.8278 14.4271 10.8611C14.7027 10.8762 14.9881 10.8388 15.2634 10.8263C16.8158 10.7573 17.3309 11.2835 17 12.3119C16.87 12.7153 17.0088 13.179 17.395 13.3536C17.6218 13.4557 17.8857 13.4358 18.0949 13.3014C19.9751 12.088 21.9541 11.0467 24.3123 11.0265C25.6091 11.0125 26.8486 11.3394 27.6752 12.4164C27.8524 12.6475 28.0913 12.832 28.375 12.8981L28.7148 12.9764C29.3361 13.1201 29.6001 12.8485 29.1823 12.3671C28.8836 12.0228 29.3897 11.5786 29.8183 11.7345C30.8644 12.1153 31.6109 12.8174 31.9121 14.0007C32.1755 15.0285 31.5125 15.8724 30.7592 16.325C29.6269 17.0042 28.4865 16.716 27.5909 17.6859C26.56 18.8021 24.8715 19.2089 23.2843 19.7316C20.3613 20.6948 17.4182 19.889 14.4794 19.6532L12.0342 19.4385C11.3224 19.4739 11.0846 20.5213 11.1659 21.2289C11.2267 21.7573 10.9472 22.2421 10.5735 22.7145C9.98276 23.461 10.4207 24.3009 11.314 23.971C12.5614 23.5102 13.7133 22.7524 15.0544 22.5811C15.4287 22.5333 15.8079 22.4872 16.1724 22.3896C18.7046 21.7114 21.2482 21.5905 23.8041 22.082C25.0877 22.3288 26.4883 21.9412 27.2047 20.8487C28.3331 19.1142 32.2147 18.5742 33.8549 19.9492C34.7851 20.7298 34.2916 21.4894 33.7242 22.0994C31.5319 24.4717 29.2452 26.7303 25.8892 27.4472C25.4891 27.5326 25.0877 27.6293 24.7044 27.7722L14.4474 31.5967C13.8535 31.9178 13.2244 32.0974 12.5511 32.1016C12.2884 32.1032 12.0301 32.2043 11.8658 32.4091C11.4424 32.9368 11.8528 33.7162 12.5279 33.6685L13.158 33.6221C13.2524 33.6154 13.3471 33.6237 13.4397 33.6424L13.614 33.6772C14.2052 33.7964 14.8191 33.682 15.3331 33.3667C17.7134 31.9069 20.1768 30.6175 22.9823 30.0472C23.4433 29.9534 23.8956 29.8215 24.3123 29.6032C24.8602 29.3162 25.4221 29.0967 25.9008 29.7599C26.4217 30.4846 25.5144 31.0506 25.1022 31.6054C24.7019 32.1406 24.2483 32.6407 23.807 33.1462C23.6242 33.3557 23.4645 33.5859 23.3279 33.8281C22.9441 34.5088 22.8511 35.3006 22.6425 36.0537C22.6216 36.1293 22.597 36.2046 22.567 36.2771C22.3435 36.8177 21.89 37.2361 21.5071 37.6786C20.7832 38.5151 19.8606 39.0802 18.664 39.2746L21.5013 39.1063L21.5129 39.1034L21.5187 39.0976C23.4976 36.7562 24.4836 33.8066 26.4758 31.4255C27.7603 29.8855 30.6254 28.4002 32.098 27.0381C32.4584 26.7046 32.8366 26.3835 33.2102 26.0602C33.7 25.6365 34.0341 25.0758 34.2702 24.473C34.5609 23.7304 34.9771 23.0794 35.8616 23.1295C37.2723 23.2103 37.1103 24.6523 37.2961 25.6685L37.482 26.8814C37.7237 28.3077 37.9312 29.7337 37.5749 31.1324C37.4739 31.529 37.356 31.9235 37.2932 32.3279L36.9157 34.774C36.8855 34.9689 36.8678 35.1659 36.8663 35.3631L36.8634 35.8622C36.8613 36.1356 36.7973 36.4055 36.6776 36.6514L36.4511 37.1186C36.2617 37.5078 36.2852 37.8868 36.5062 38.259C37.0797 39.2241 39.3811 40.8224 40.325 41.4305C40.6701 41.6531 41.0071 41.9482 41.3472 42.272C42.6696 43.5266 42.7021 41.6158 41.3675 40.3743C39.5199 38.6559 39.2526 36.6989 40.1682 33.5582C40.8318 31.2876 40.8484 29.0254 40.1508 26.745C39.7061 25.2926 39.4587 23.8394 39.6513 22.3576C39.6958 22.0149 39.7061 21.6607 39.8168 21.3333C39.9166 21.0389 40.1101 20.8221 40.415 20.7037C40.6973 20.5941 41.0066 20.5724 41.3008 20.5005L41.4285 20.4686C44.3677 19.8648 45.8602 21.7652 47.2772 23.7911C47.7672 24.4926 48.0378 25.3237 48.038 26.1792V38.0588C47.8998 39.8233 47.9141 41.6373 46.4786 42.98C46.2291 43.2135 46.0335 43.5062 45.9704 43.8419L45.8717 44.3729C45.7371 45.0885 46.4572 45.7259 47.0739 46.1139C47.1143 46.1393 47.1593 46.167 47.2017 46.1893C47.2301 46.2043 47.2593 46.2204 47.2859 46.2358C48.2947 46.8205 47.0994 48 45.9326 48H5.9474C2.66274 48 0 45.3394 0 42.0573V3.17156C0 1.4206 1.42172 0 3.17408 0H7.6898Z" fill="white"/>
<path fill-rule="evenodd" clip-rule="evenodd" d="M187.883 17.3928C191.824 17.3928 195.764 20.259 195.765 27.6968C195.765 35.4169 191.189 38.2038 186.768 38.2038C184.381 38.2038 182.787 37.644 181.593 36.7675V41.9412H184.259V45.0461H173.392V41.9412H174.786C175.266 41.9403 175.779 41.4247 175.779 40.9489V22.288C175.779 21.8516 175.266 21.2155 174.786 21.2144H173.235V17.712H180.359C180.997 17.712 181.394 18.1899 181.512 20.1378C183.065 18.5858 185.097 17.3931 187.883 17.3928ZM185.058 21.5742C184.022 21.5742 182.749 21.8886 181.593 22.3286V33.9877C182.47 34.542 183.507 34.9017 184.979 34.9017C187.366 34.9016 189.875 33.7847 189.875 28.2162C189.875 22.9257 187.606 21.5746 185.058 21.5742Z" fill="white"/>
<path fill-rule="evenodd" clip-rule="evenodd" d="M107.625 17.3928C113.038 17.393 115.905 19.1449 115.905 23.9188V34.3011C115.905 34.7783 116.423 35.2963 116.901 35.2963H118.013V38.082C117.219 38.5586 116.023 38.877 114.511 38.877C112.083 38.877 110.85 37.9235 110.332 36.2539C108.779 38.1619 106.828 38.8392 104.28 38.8393C100.38 38.8393 97.592 36.6904 97.592 32.5513C97.5923 28.1776 101.016 26.185 105.834 26.185C107.585 26.185 108.78 26.3476 110.094 26.6667V24.4759C110.094 22.3693 108.939 21.3713 106.472 21.3711C103.965 21.3711 102.69 22.3292 101.655 23.2427H98.9859V18.9859C100.936 18.109 103.564 17.3928 107.625 17.3928ZM107.027 29.2492C104.68 29.2492 103.246 30.2037 103.246 32.3134C103.246 34.4233 104.482 35.4182 106.432 35.4182C107.904 35.418 109.099 34.8608 110.094 33.947V29.4871C109.18 29.3294 108.143 29.2492 107.027 29.2492Z" fill="white"/>
<path fill-rule="evenodd" clip-rule="evenodd" d="M207.233 17.3928C212.646 17.3928 215.512 19.1447 215.512 23.9188V34.3011C215.512 34.7783 216.031 35.2963 216.508 35.2963H217.623V38.082C216.827 38.5587 215.633 38.8769 214.121 38.877C211.693 38.877 210.457 37.9235 209.939 36.2539C208.386 38.1618 206.436 38.8393 203.887 38.8393C199.988 38.8389 197.202 36.69 197.202 32.5513C197.203 28.1779 200.623 26.1852 205.441 26.185C207.193 26.185 208.387 26.3476 209.701 26.6667V24.4759C209.701 22.369 208.545 21.3711 206.077 21.3711C203.569 21.3711 202.294 22.329 201.262 23.2427H198.593V18.9859C200.543 18.1091 203.172 17.3929 207.233 17.3928ZM206.634 29.2492C204.285 29.2494 202.853 30.204 202.853 32.3134C202.853 34.4231 204.086 35.418 206.036 35.4182C207.512 35.4182 208.706 34.8606 209.701 33.947V29.4871C208.784 29.3294 207.747 29.2492 206.634 29.2492Z" fill="white"/>
<path d="M229.187 17.3928C232.569 17.3928 234.84 17.8715 236.232 18.4694V23.2427H232.73C232.014 21.812 231.098 21.0957 229.068 21.0954C225.924 21.0954 224.009 23.3228 224.009 28.2539C224.009 33.2294 225.645 35.2557 229.027 35.2557C231.615 35.2554 232.651 34.1049 233.485 33.0301H236.313V37.1273C234.76 38.0042 232.452 38.877 228.908 38.877C221.663 38.8769 218.08 34.9005 218.079 28.2162C218.079 21.4937 222.419 17.3931 229.187 17.3928Z" fill="white"/>
<path fill-rule="evenodd" clip-rule="evenodd" d="M248.138 17.3928C254.388 17.3933 257.652 20.5809 257.652 27.662C257.652 28.3768 257.571 29.0507 257.571 29.2492H243.6C243.838 33.3883 245.67 35.2963 249.015 35.2963C251.6 35.2961 252.517 34.3831 253.589 33.0301H256.897V36.8487C255.186 37.8837 252.914 38.877 248.533 38.877C241.288 38.8768 237.667 34.8183 237.667 28.2539C237.667 21.5325 241.848 17.3928 248.138 17.3928ZM248.138 20.8575C245.711 20.8575 244.115 22.369 243.678 25.947H251.838C251.64 22.2893 250.525 20.858 248.138 20.8575Z" fill="white"/>
<path d="M164.515 17.4741C167.779 17.4742 170.008 17.8305 171.682 18.3881V23.0047H168.458C167.78 21.7716 166.503 20.9764 164.314 20.9764C162.167 20.9766 160.973 21.8515 160.972 23.1614C160.972 24.4343 161.729 25.1912 165.27 25.7091C170.327 26.465 172.399 27.8594 172.399 32.0754C172.399 36.1739 169.649 38.8393 163.318 38.8393C159.538 38.8392 157.471 38.279 155.756 37.7251V33.0301H159.102C159.58 34.5008 161.452 35.4182 163.281 35.4182C165.509 35.418 166.864 34.4633 166.864 32.9518C166.864 31.3999 165.949 30.762 162.604 30.2851C158.106 29.6499 155.998 28.0976 155.997 24C155.997 19.8612 159.182 17.4741 164.515 17.4741Z" fill="white"/>
<path fill-rule="evenodd" clip-rule="evenodd" d="M69.0863 10.7508C76.0528 10.7508 79.7149 13.0203 79.7149 17.8716C79.7147 21.3717 77.7646 23.1246 73.9824 23.8404V24C78.363 24.6383 80.7517 26.7033 80.7517 30.4824C80.7517 35.9351 76.3725 38.5985 69.4057 38.5985H57.6619V35.1803H59.1749C59.7699 35.1803 60.3271 34.4643 60.3278 33.947V15.2862C60.3269 14.769 59.7698 14.053 59.1749 14.053H57.6619V10.7508H69.0863ZM66.5395 25.7904V34.9394H69.246C73.3063 34.939 74.3831 33.1094 74.3832 30.2038C74.3832 27.3014 73.3064 25.7907 69.246 25.7904H66.5395ZM66.5395 14.4099V22.407H68.9295C72.3921 22.4068 73.5846 21.0147 73.5846 18.3475C73.5844 15.6839 72.3918 14.41 68.9295 14.4099H66.5395Z" fill="white"/>
<path d="M95.957 17.5147C96.397 17.5147 96.8353 17.5912 97.2319 17.712V22.0094H96.2358C93.2106 22.0096 91.3806 22.6454 90.2245 23.2833V35.2963H93.1343V38.5985H82.0236V35.2963H83.4204C83.8979 35.2959 84.4165 34.7377 84.4165 34.3011V22.288C84.4161 21.8514 83.8977 21.2148 83.4204 21.2144H81.8668V17.712H88.9903C89.6691 17.712 90.1061 18.3107 90.1868 20.7356C91.5786 19.0255 93.2108 17.515 95.957 17.5147Z" fill="white"/>
<path d="M126.496 17.712C127.131 17.712 127.451 18.3482 127.451 19.9405V34.3011C127.451 34.7783 127.969 35.2963 128.447 35.2963H129.96V38.5985H119.131V35.2963H120.644C121.121 35.2956 121.599 34.7376 121.599 34.3011V22.288C121.599 21.8515 121.121 21.2152 120.644 21.2144H118.971V17.712H126.496Z" fill="white"/>
<path d="M146.96 17.3928C149.865 17.3931 152.373 18.5498 152.373 22.6072V34.3011C152.373 34.7778 152.889 35.2954 153.366 35.2963H154.481V38.5985H144.172V35.2963H146.559V24.5978C146.559 22.5285 145.763 21.9282 143.812 21.9282C142.141 21.9282 140.588 22.2894 139.232 22.7262V35.2963H141.663V38.5985H131.032V35.2963H132.428C132.906 35.2958 133.422 34.7376 133.422 34.3011V22.288C133.421 21.8514 132.906 21.215 132.428 21.2144H130.875V17.712H137.998C138.677 17.712 139.074 18.2702 139.195 20.4164C141.145 18.5855 143.813 17.3928 146.96 17.3928Z" fill="white"/>
<path d="M262.548 17.9993V18.5941H261.387V21.551H260.678V18.5941H259.516V17.9993H262.548Z" fill="white"/>
<path d="M264.169 17.9993L265.075 20.5441L265.989 17.9993H267V21.551H266.349V18.687L265.365 21.551H264.796L263.803 18.687V21.551H263.152V17.9993H264.169Z" fill="white"/>
<path d="M33.3002 15.054C33.6613 15.0979 33.9773 15.3144 34.2353 15.5705C34.9265 16.2574 35.2455 17.165 35.0339 18.0863C34.8047 19.0836 33.8498 18.6885 33.1492 18.3881C31.9093 17.8555 31.8402 16.9138 32.249 15.8549C32.4575 15.3214 32.7752 14.9905 33.3002 15.054Z" fill="white"/>
<path d="M44.106 9.55241C46.2386 9.27746 48.0377 11.1094 48.038 13.2579V17.3812C48.038 17.4714 47.9592 17.542 47.8696 17.5321C47.8369 17.5283 47.8023 17.5358 47.7738 17.5524C45.647 18.8207 44.4381 18.8105 43.3974 15.8752C41.6971 11.0731 41.1478 9.93394 44.106 9.55241Z" fill="white"/>
<path d="M124.466 9.91512C126.217 9.91512 127.611 11.3067 127.611 13.0199C127.611 14.7296 126.217 16.0812 124.466 16.0812C122.714 16.0812 121.318 14.7295 121.318 13.0199C121.318 11.3067 122.714 9.91522 124.466 9.91512Z" fill="white"/>
<path d="M18.0629 9.31157C18.6147 8.57124 19.4071 8.36052 20.2845 8.76315C20.5359 8.88003 20.7012 9.05062 20.7549 9.26514C20.8747 9.74546 20.4316 10.182 19.9941 10.4142C19.5203 10.6656 18.9723 10.7365 18.3736 10.481C17.9148 10.2831 17.7438 9.73915 18.0629 9.31157Z" fill="white"/>
<path d="M21.3531 0C21.8522 0.000267637 22.3296 0.218299 22.628 0.618063C23.7503 2.12364 24.7322 3.72931 25.7121 5.32463C26.149 6.03664 26.599 6.857 25.9763 7.64019C25.4277 8.33055 24.6111 8.10603 23.8796 7.89844C21.8122 7.31073 19.8965 6.51676 18.1384 5.51034C15.1574 3.80382 16.7937 0 20.2293 0H21.3531Z" fill="white"/>
<path d="M30.7563 0C31.5408 0.000336005 32.312 0.273848 32.853 0.841494C33.5978 1.62294 34.2492 2.50926 34.7551 3.55749C35.2728 4.62614 36.3103 5.93296 35.2256 6.81901C34.0135 7.80757 32.0069 8.12915 30.736 7.05114C29.8889 6.33228 29.108 5.55968 28.3779 4.74719C26.6693 2.84546 28.1985 0 30.7563 0Z" fill="white"/>
<path d="M46.5251 4.0827C46.8648 3.11966 48.0377 3.66525 48.038 4.68625C48.038 5.62255 46.8569 6.36414 46.4815 5.50744C46.3643 5.23909 46.3282 4.90924 46.4118 4.49184C46.4405 4.34881 46.4792 4.2128 46.5251 4.0827Z" fill="white"/>
<path d="M42.6047 2.62314C42.7288 2.51516 43.2567 2.58838 43.3481 2.7276C43.3712 2.76383 43.3924 2.79965 43.412 2.83497C43.7967 3.52951 42.0107 3.15038 42.6047 2.62314Z" fill="white"/>
<path d="M45.9791 0C46.4774 0.000765367 46.6192 0.528116 46.165 0.734131C45.1822 1.18013 44.1739 1.28656 43.3336 0.348205C43.2068 0.206182 43.3351 0.00102293 43.5252 0H45.9791Z" fill="white"/>
<path d="M37.4965 0C37.8257 0.000479257 38.0321 0.34608 37.7869 0.565832C37.7471 0.60153 37.7036 0.634377 37.6591 0.667392C37.4639 0.81252 37.254 0.939615 37.0522 0.803772C36.7707 0.614009 36.6429 0 36.9825 0H37.4965Z" fill="white"/>
</svg>
