<svg width="298" height="31" viewBox="0 0 298 31" fill="none" xmlns="http://www.w3.org/2000/svg">
<path fill-rule="evenodd" clip-rule="evenodd" d="M91.585 0C100.436 0 107.175 5.57128 107.175 13.6582C107.175 23.2276 99.6272 31 89.2042 31C80.3088 30.9998 73.5694 25.3837 73.5694 17.252C73.5695 7.68271 81.1623 0.000346952 91.585 0ZM91.046 7.99707C86.284 7.99743 82.9591 12.0407 82.9591 16.623C82.9591 20.3069 85.6551 23.0027 89.6983 23.0029C94.4606 23.0029 97.7851 18.9595 97.7852 14.377C97.7852 10.6929 95.0894 7.99707 91.046 7.99707Z" fill="white"/>
<path fill-rule="evenodd" clip-rule="evenodd" d="M186.659 0C195.51 5.33296e-06 202.249 5.57128 202.249 13.6582C202.249 23.2275 194.701 30.9999 184.278 31C175.383 30.9999 168.644 25.3837 168.644 17.252C168.644 7.6826 176.236 0.000163082 186.659 0ZM186.12 7.99707C181.358 7.99726 178.033 12.0406 178.033 16.623C178.033 20.307 180.729 23.0028 184.773 23.0029C189.535 23.0028 192.859 18.9594 192.859 14.377C192.859 10.6929 190.164 7.99711 186.12 7.99707Z" fill="white"/>
<path d="M31.63 22.5791C33.0477 22.5791 34.4154 23.6337 34.2764 25.2246L34.2706 25.2871L33.6593 28.0527C33.4917 29.505 32.1076 30.4609 30.7384 30.4609H14.0841C12.6663 30.4609 11.2987 29.4062 11.4376 27.8154L11.4434 27.7529L12.0548 24.9873C12.2222 23.5355 13.6056 22.5793 14.9737 22.5791H31.63Z" fill="white"/>
<path fill-rule="evenodd" clip-rule="evenodd" d="M64.2569 0.494141C70.3221 0.494141 72.9278 4.35796 72.9278 7.95215C72.9278 11.7709 69.7378 15.2754 66.1886 15.5898C69.1088 16.3985 70.4571 19.0046 70.4571 21.5205C70.4569 25.4741 67.7156 30.4609 59.8087 30.4609H40.9845L47.5889 0.494141H64.2569ZM51.7218 22.9131H58.8653C60.3927 22.9131 61.4266 22.0595 61.4268 20.8018C61.4268 19.8134 60.7522 19.0938 59.7188 19.0938H52.5762L51.7218 22.9131ZM54.2384 11.5459H61.0675C62.7744 11.5457 63.2686 10.4678 63.2686 9.52441C63.2686 8.71585 62.7294 8.04212 61.6514 8.04199H55.0919L54.2384 11.5459Z" fill="white"/>
<path d="M122.961 8.49121L129.206 0.494141H140.393L127.453 15.5898L134.462 30.4609H124.219L120.355 21.835L113.257 30.4609H102.114L115.907 14.5566L109.393 0.494141H119.591L122.961 8.49121Z" fill="white"/>
<path fill-rule="evenodd" clip-rule="evenodd" d="M159.334 0.494141C165.399 0.494303 168.005 4.35804 168.005 7.95215C168.005 11.7709 164.815 15.2753 161.266 15.5898C164.186 16.3986 165.533 19.0046 165.533 21.5205C165.533 25.4741 162.793 30.4609 154.886 30.4609H136.062L142.666 0.494141H159.334ZM146.799 22.9131H153.942C155.47 22.9131 156.503 22.0595 156.503 20.8018C156.503 19.8134 155.829 19.0938 154.796 19.0938H147.652L146.799 22.9131ZM149.315 11.5459H156.144C157.851 11.5459 158.345 10.4679 158.345 9.52441C158.345 8.71577 157.806 8.04199 156.728 8.04199H150.168L149.315 11.5459Z" fill="white"/>
<path fill-rule="evenodd" clip-rule="evenodd" d="M231.628 30.4609H221.788L221.474 26.9561H210.691L208.85 30.4609H198.112L215.769 0.494141H227.18L231.628 30.4609ZM214.87 19.0488H220.8L219.946 9.38965L214.87 19.0488Z" fill="white"/>
<path fill-rule="evenodd" clip-rule="evenodd" d="M254.404 0.494141C259.84 0.494231 264.468 4.04341 264.468 9.56934C264.468 14.8707 261.008 18.9588 257.1 20.3516L260.065 30.4609H250.091L248.024 21.0264H244.386L242.318 30.4609H233.243L239.848 0.494141H254.404ZM246.138 13.1191H251.663C253.64 13.1191 255.078 12.2649 255.078 10.5576C255.078 9.2999 253.955 8.40156 252.563 8.40137H247.171L246.138 13.1191Z" fill="white"/>
<path fill-rule="evenodd" clip-rule="evenodd" d="M283.458 0.494141C290.107 0.494249 297.025 5.48153 297.025 13.4336C297.025 21.0263 292.218 30.4609 277.033 30.4609H263.69L270.294 0.494141H283.458ZM274.518 22.5537H278.695C284.356 22.5537 287.636 18.6899 287.636 14.1074C287.636 10.9177 285.3 8.40156 281.796 8.40137H277.617L274.518 22.5537Z" fill="white"/>
<path d="M33.7647 11.9385C35.2152 11.9385 36.5839 13.0229 36.4454 14.625L36.4395 14.6904L35.8321 17.3721C35.6627 18.8383 34.2693 19.8203 32.8712 19.8203H8.0118C6.56112 19.8203 5.19218 18.7352 5.33113 17.1328L5.33699 17.0674L5.94441 14.3867C6.11388 12.9207 7.50646 11.9387 8.90437 11.9385H33.7647Z" fill="white"/>
<path d="M36.3194 0.90332C37.7454 0.903387 39.1479 1.94648 39.005 3.55078L39.0001 3.61328L38.38 6.37891C38.2097 7.84074 36.7923 8.78503 35.4151 8.78516H2.69539C1.26941 8.78507 -0.133217 7.74305 0.00984272 6.13867L0.0147255 6.07617L0.633866 3.30957C0.805966 1.8497 2.21974 0.90333 3.59871 0.90332H36.3194Z" fill="white"/>
</svg>
