<svg width="32" height="25" viewBox="0 0 32 25" fill="none" xmlns="http://www.w3.org/2000/svg">
<path d="M17.2803 0H4.90676V5.46218H12.6402C13.9203 2.83613 15.2536 1.68067 17.2803 0Z" fill="#0400FF"/>
<path d="M0 15.7563L3.25527e-06 14.7059H5.76011V15.9139C5.76011 17.9153 7.40773 19.5378 9.44018 19.5378C11.4726 19.5378 13.2269 17.9153 13.2269 15.9139L13.2269 9.2437C13.2269 4.13854 17.4295 0 22.6138 0C27.7624 0 31.9428 4.08189 32 9.13866H26.2401C26.2404 9.12118 26.2405 9.10368 26.2405 9.08613C26.2405 7.08468 24.5929 5.46218 22.5604 5.46218C20.528 5.46218 18.987 7.08468 18.987 9.08613V15.7563C18.987 20.8615 14.571 25 9.38684 25C4.20263 25 0 20.8615 0 15.7563Z" fill="#0400FF"/>
<path d="M22.6137 25C20.4066 25 18.027 24.2122 16.747 23.3193C19.0404 21.0084 19.787 18.3824 19.787 18.3824C20.5642 19.0651 21.3337 19.4853 22.6671 19.4853C24.8538 19.4853 26.248 17.7952 26.3284 15.9664H31.9982C31.8848 20.9745 27.7267 25 22.6137 25Z" fill="#0400FF"/>
</svg>
