<?xml version="1.0" encoding="UTF-8"?>
<svg width="62px" height="15px" viewBox="0 0 62 15" version="1.1" xmlns="http://www.w3.org/2000/svg" xmlns:xlink="http://www.w3.org/1999/xlink">
    <!-- Generator: Sketch 42 (36781) - http://www.bohemiancoding.com/sketch -->
    <title>Shape</title>
    <desc>Created with Sketch.</desc>
    <defs></defs>
    <g id="Page-1" stroke="none" stroke-width="1" fill="none" fill-rule="evenodd">
        <g id="Resume" transform="translate(-582.000000, -403.000000)" fill-rule="nonzero" fill="#FFFFFF">
            <path d="M601.05871,409.035238 C601.761482,409.035238 602.33118,408.465343 602.33118,407.762374 C602.33118,407.059404 601.761482,406.489509 601.05871,406.489509 C600.355872,406.489509 599.786173,407.059404 599.786173,407.762374 C599.786173,408.465343 600.355872,409.035238 601.05871,409.035238 L601.05871,409.035238 Z M643.054446,413.384159 C642.860872,413.248001 642.711394,413.225494 642.587441,413.48987 C640.450186,418.118719 636.848592,415.808888 637.206474,416.012174 C638.005312,415.646679 640.106346,413.9616 639.788818,411.634971 C639.595901,410.213022 638.375531,409.582298 637.080093,409.808156 C634.818951,410.202326 633.987042,412.641228 634.410543,414.800597 C634.484691,415.17134 634.617109,415.477253 634.74933,415.776801 C632.194086,417.854737 631.179364,413.916586 631.064204,413.446037 C631.059611,413.420905 633.037216,411.772507 633.587229,407.844528 C634.163686,403.72783 632.850467,402.978337 631.507456,403.001697 C629.02249,403.045006 628.351083,408.236991 629.253138,412.564127 C629.177677,412.583812 628.825963,412.778567 628.260989,412.800353 C627.854352,411.521123 626.117238,410.399771 625.662503,410.831803 C624.524549,411.912865 625.938493,414.026103 626.933267,414.191921 C626.335681,417.872781 622.598257,416.96108 623.294009,412.349555 C624.511098,410.089528 625.43671,406.728885 625.271483,404.700097 C625.213017,403.981773 624.681968,403.019414 623.480824,403.066988 C621.170862,403.15846 620.91974,408.351889 621.190613,412.037868 C621.177095,411.947117 621.048615,412.485713 620.102005,412.753567 C619.878049,411.510624 617.876821,410.263088 617.405681,410.862906 C616.523902,411.985504 618.052088,413.986995 618.776055,414.126696 C618.178469,417.807491 614.44111,416.89579 615.136862,412.284264 C616.353885,410.024238 617.279497,406.663594 617.11427,404.634807 C617.055804,403.916483 616.524821,402.954124 615.323611,403.001697 C613.013649,403.093235 612.762528,408.286598 613.0334,411.972577 C613.019752,411.880449 612.888253,412.436696 611.902993,412.700219 C611.869987,411.087714 609.861475,410.348392 609.378984,410.862906 C608.519121,411.779922 609.575904,413.661725 610.553618,414.126696 C609.956031,417.807491 606.218673,416.89579 606.914425,412.284264 C608.131448,410.024238 609.05706,406.663594 608.891833,404.634807 C608.833367,403.916483 608.302384,402.954124 607.101174,403.001697 C604.791212,403.093235 604.605381,408.547694 604.876253,412.233673 C604.115409,415.493526 601.56384,419.564554 601.895278,411.409441 C601.928021,410.837446 601.963783,410.620118 601.678606,410.406005 C601.464822,410.239466 600.978852,410.31952 600.713295,410.326213 C600.390387,410.33914 600.309414,410.528121 600.238087,410.813626 C600.07181,411.55098 600.042019,412.26576 600.018265,413.241045 C600.002648,413.69729 599.966033,413.910156 599.790438,414.532218 C599.614844,415.154279 598.613902,416.291051 598.065726,416.101086 C597.305406,415.839466 597.55469,413.693025 597.697279,412.218187 C597.816048,411.052608 597.435921,410.529302 596.461751,410.338943 C595.891462,410.220043 595.544932,410.23835 594.951086,410.051141 C594.389459,409.874103 594.262356,408.811676 593.064624,409.165753 C592.409294,409.359524 592.830498,410.747811 592.67308,411.776772 C591.898915,416.83798 590.28805,416.97696 589.540723,414.518306 C592.906419,406.275396 590.514368,403.025714 589.114335,403.025714 C587.655902,403.025714 585.988802,404.030199 586.694724,410.457647 C586.351475,410.357513 586.24596,410.303575 585.87023,410.303575 C583.745114,410.303575 582.29718,412.021529 582.29718,414.140739 C582.29718,416.259948 583.745114,417.977902 585.87023,417.977902 C587.124787,417.977902 588.00545,417.407416 588.672592,416.524784 C589.107773,417.148093 589.637772,417.987548 590.606955,417.949752 C593.495737,417.837282 594.33598,411.911487 594.435063,411.580967 C594.743929,411.62854 595.036127,411.718634 595.321239,411.766208 C595.796447,411.8376 595.830897,412.025663 595.820201,412.503627 C595.694345,416.533774 596.437998,417.944896 598.124914,417.944896 C599.064831,417.944896 599.902646,417.021515 600.479759,416.361132 C600.910806,417.250785 601.597633,417.91773 602.519046,417.944896 C604.751907,418.000344 605.606717,414.441664 605.528828,414.909982 C605.467672,415.277445 606.253189,417.924817 608.551799,417.934463 C611.399176,417.94634 611.928388,414.815164 611.991578,414.290676 C611.999452,414.186278 612.002864,414.197236 611.991578,414.290676 C611.990856,414.300388 611.990069,414.310756 611.989281,414.322501 C612.893239,414.154387 613.35972,413.66973 613.35972,413.66973 C613.35972,413.66973 614.085525,417.983152 616.774236,417.934463 C619.5661,417.883871 620.092621,415.053555 620.161848,414.501574 C620.170904,414.3706 620.17635,414.385954 620.161848,414.501574 C620.161455,414.50702 620.161127,414.51181 620.160733,414.517782 C621.234511,414.12709 621.516867,413.73502 621.516867,413.73502 C621.516867,413.73502 622.093849,417.962679 624.931383,417.999687 C627.460117,418.032693 628.397212,415.443328 628.402724,414.359444 C628.829244,414.363972 629.618107,414.106486 629.599603,414.091722 C629.599603,414.091722 630.525871,417.788068 633.112415,417.977902 C634.326945,418.067012 635.237924,417.294618 635.757228,416.942182 C636.977729,417.930591 641.041669,419.192957 643.607675,414.842395 C643.969822,414.218037 643.191129,413.480421 643.054446,413.384159 L643.054446,413.384159 Z M585.767668,416.542698 C584.52781,416.542698 583.732778,415.39628 583.732778,414.160162 C583.732778,412.924043 584.462519,411.777625 585.702378,411.777625 C586.260396,411.777625 586.57064,411.839044 587.00523,412.217006 C587.084103,412.527446 587.307337,413.243736 587.416067,413.569006 C587.561608,414.004187 587.734775,414.374668 587.909451,414.777893 C587.659904,415.812103 586.842169,416.542698 585.767668,416.542698 L585.767668,416.542698 Z M588.788999,412.253358 C588.737489,412.171204 588.748184,412.221665 588.690506,412.144038 C588.46327,411.525848 588.025267,410.145828 587.974544,408.578338 C587.917194,406.80533 588.212739,404.727066 589.083953,404.727066 C589.674256,404.727066 590.301633,408.939042 588.788999,412.253358 L588.788999,412.253358 Z M606.246627,410.406005 C606.106728,409.353815 606.099445,404.663219 607.225521,404.792356 C607.847189,405.0442 606.831286,409.470419 606.246627,410.406005 L606.246627,410.406005 Z M614.469064,410.406005 C614.329166,409.353815 614.321882,404.663219 615.447958,404.792356 C616.069626,405.0442 615.053723,409.470419 614.469064,410.406005 L614.469064,410.406005 Z M622.626276,410.471295 C622.486313,409.419105 622.479095,404.72851 623.605105,404.857647 C624.226839,405.10949 623.21087,409.535709 622.626276,410.471295 L622.626276,410.471295 Z M631.631803,404.517809 C632.661355,404.411114 632.618834,408.906954 630.552381,411.74521 C630.285971,410.719398 629.877365,404.870114 631.631803,404.517809 L631.631803,404.517809 Z M635.95907,414.191921 C635.628353,412.521606 636.48277,411.424533 637.363565,411.304255 C637.67138,411.255041 638.117519,411.454521 638.206498,411.827364 C638.352827,412.530071 638.185303,413.572352 636.213931,414.89489 C636.216884,414.906176 636.032694,414.563846 635.95907,414.191921 L635.95907,414.191921 Z" id="Shape"></path>
        </g>
    </g>
</svg>