<?xml version="1.0" encoding="UTF-8"?>
<svg width="57px" height="15px" viewBox="0 0 57 15" version="1.1" xmlns="http://www.w3.org/2000/svg" xmlns:xlink="http://www.w3.org/1999/xlink">
    <!-- Generator: Sketch 42 (36781) - http://www.bohemiancoding.com/sketch -->
    <title>Shape</title>
    <desc>Created with Sketch.</desc>
    <defs></defs>
    <g id="Page-1" stroke="none" stroke-width="1" fill="none" fill-rule="evenodd">
        <g id="Resume" transform="translate(-494.000000, -404.000000)" fill-rule="nonzero" fill="#FFFFFF">
            <path d="M505.460078,410.411862 L500.805085,410.411862 C500.685007,410.411862 500.587538,410.509447 500.587538,410.629525 L500.587538,412.905461 C500.587538,413.025538 500.685007,413.123238 500.805085,413.123238 L502.621012,413.123238 L502.621012,415.950885 C502.621012,415.950885 502.213256,416.089879 501.085958,416.089879 C499.755992,416.089879 497.898078,415.603917 497.898078,411.518513 C497.898078,407.432187 499.832699,406.894549 501.648972,406.894549 C503.221169,406.894549 503.898494,407.171384 504.329435,407.304727 C504.464853,407.346252 504.590122,407.21141 504.590122,407.091217 L505.109419,404.892219 C505.109419,404.836044 505.090387,404.768335 505.026253,404.722311 C504.85127,404.597504 503.783491,404 501.085958,404 C497.978361,404 494.790712,405.322121 494.790712,411.677809 C494.790712,418.033728 498.44033,418.980852 501.515745,418.980852 C504.062173,418.980852 505.606916,417.892657 505.606916,417.892657 C505.670588,417.857476 505.677509,417.768542 505.677509,417.727709 L505.677509,410.629525 C505.677509,410.509447 505.580155,410.411862 505.460078,410.411862 Z M529.437285,404.795557 C529.437285,404.674441 529.341315,404.576741 529.221238,404.576741 L526.60018,404.576741 C526.480448,404.576741 526.383095,404.674441 526.383095,404.795557 C526.383095,404.796134 526.383787,409.860844 526.383787,409.860844 L522.298268,409.860844 L522.298268,404.795557 C522.298268,404.674441 522.201836,404.576741 522.08199,404.576741 L519.461047,404.576741 C519.341777,404.576741 519.244538,404.674441 519.244538,404.795557 L519.244538,418.510808 C519.244538,418.631808 519.341777,418.730316 519.461047,418.730316 L522.08199,418.730316 C522.201836,418.730316 522.298268,418.631808 522.298268,418.510808 L522.298268,412.644312 L526.383787,412.644312 C526.383787,412.644312 526.376635,418.510347 526.376635,418.510808 C526.376635,418.631808 526.473874,418.730316 526.59372,418.730316 L529.221007,418.730316 C529.341085,418.730316 529.437055,418.631808 529.437285,418.510808 L529.437285,404.795557 Z M510.397675,406.629248 C510.397675,405.685468 509.64099,404.922786 508.707477,404.922786 C507.774886,404.922786 507.017625,405.685468 507.017625,406.629248 C507.017625,407.571989 507.774886,408.336748 508.707477,408.336748 C509.64099,408.336748 510.397675,407.571989 510.397675,406.629248 Z M510.189702,415.624795 L510.189702,409.293792 C510.189702,409.173599 510.092694,409.075322 509.972847,409.075322 L507.360094,409.075322 C507.240247,409.075322 507.132973,409.198976 507.132973,409.319169 L507.132973,418.389577 C507.132973,418.656147 507.299075,418.735391 507.514084,418.735391 L509.868111,418.735391 C510.126376,418.735391 510.189702,418.608623 510.189702,418.385309 L510.189702,415.624795 Z M539.454818,409.075322 L536.853831,409.075322 C536.73456,409.075322 536.637438,409.173599 536.637438,409.294599 L536.637438,416.019632 C536.637438,416.019632 535.976723,416.503057 535.038826,416.503057 C534.101045,416.503057 533.852124,416.077537 533.852124,415.15925 L533.852124,409.294599 C533.852124,409.173599 533.755231,409.075322 533.635846,409.075322 L530.996101,409.075322 C530.876947,409.075322 530.779362,409.173599 530.779362,409.294599 L530.779362,415.603341 C530.779362,418.330865 532.299537,418.998154 534.3908,418.998154 C536.106374,418.998154 537.48963,418.050338 537.48963,418.050338 C537.48963,418.050338 537.555494,418.549796 537.585254,418.609085 C537.615129,418.668143 537.692758,418.727778 537.776617,418.727778 L539.455972,418.720396 C539.575126,418.720396 539.672711,418.621888 539.672711,418.501465 L539.671904,409.294599 C539.671904,409.173599 539.574665,409.075322 539.454818,409.075322 Z M545.447505,416.508247 C544.545367,416.480795 543.933444,416.071424 543.933444,416.071424 L543.933444,411.728101 C543.933444,411.728101 544.537177,411.358064 545.277828,411.291854 C546.214456,411.207996 547.11694,411.490945 547.11694,413.725241 C547.11694,416.081344 546.709645,416.546312 545.447505,416.508247 Z M546.473412,408.780723 C544.996147,408.780723 543.991349,409.439823 543.991349,409.439823 L543.991349,404.795557 C543.991349,404.674441 543.894572,404.576741 543.775071,404.576741 L541.146631,404.576741 C541.02713,404.576741 540.930007,404.674441 540.930007,404.795557 L540.930007,418.510808 C540.930007,418.631808 541.02713,418.730316 541.146977,418.730316 L542.970633,418.730316 C543.05276,418.730316 543.114933,418.687983 543.160841,418.613814 C543.206173,418.540107 543.271576,417.981475 543.271576,417.981475 C543.271576,417.981475 544.346391,419 546.381018,419 C548.76965,419 550.139525,417.788382 550.139525,413.560754 C550.139525,409.333126 547.951715,408.780723 546.473412,408.780723 Z M517.733361,409.051791 L515.76725,409.051791 C515.76725,409.051791 515.764251,406.454957 515.764251,406.45438 C515.764251,406.356103 515.713613,406.306965 515.599995,406.306965 L512.920687,406.306965 C512.816527,406.306965 512.760583,406.352758 512.760583,406.45288 L512.760583,409.137034 C512.760583,409.137034 511.41793,409.461162 511.327151,409.487346 C511.236718,409.51353 511.170162,409.596927 511.170162,409.696357 L511.170162,411.383095 C511.170162,411.504441 511.267054,411.602256 511.386901,411.602256 L512.760583,411.602256 L512.760583,415.659977 C512.760583,418.673911 514.874686,418.970009 516.301313,418.970009 C516.953146,418.970009 517.7329,418.760652 517.861628,418.713129 C517.939488,418.684523 517.984705,418.603894 517.984705,418.51646 L517.986896,416.660968 C517.986896,416.539968 517.884698,416.442038 517.76958,416.442038 C517.65504,416.442038 517.36194,416.488638 517.060189,416.488638 C516.094493,416.488638 515.76725,416.039588 515.76725,415.458348 C515.76725,414.877569 515.767135,411.602256 515.767135,411.602256 L517.733361,411.602256 C517.853208,411.602256 517.950216,411.504441 517.950216,411.383095 L517.950216,409.270376 C517.950216,409.149376 517.853208,409.051791 517.733361,409.051791 Z" id="Shape"></path>
        </g>
    </g>
</svg>