<?xml version="1.0" encoding="UTF-8"?>
<svg width="77px" height="18px" viewBox="0 0 77 18" version="1.1" xmlns="http://www.w3.org/2000/svg" xmlns:xlink="http://www.w3.org/1999/xlink">
    <!-- Generator: Sketch 42 (36781) - http://www.bohemiancoding.com/sketch -->
    <title>Logo-2C-White-0p25in-TM</title>
    <desc>Created with Sketch.</desc>
    <defs>
        <polygon id="path-1" points="0.973 17.939 31.038 17.939 31.038 0 0.973 0"></polygon>
    </defs>
    <g id="Page-1" stroke="none" stroke-width="1" fill="none" fill-rule="evenodd">
        <g id="Resume" transform="translate(-382.000000, -402.000000)">
            <g id="Logo-2C-White-0p25in-TM" transform="translate(382.000000, 402.000000)">
                <polyline id="Fill-1" fill="#FFFFFF" points="0 2.663 2.777 2.663 2.777 12.776 7.918 12.776 7.918 15.339 0 15.339 0 2.663"></polyline>
                <path d="M10.479,2.475 C11.333,2.475 12.027,3.168 12.027,4.022 C12.027,4.878 11.333,5.57 10.479,5.57 C9.625,5.57 8.932,4.878 8.932,4.022 C8.932,3.168 9.625,2.475 10.479,2.475 L10.479,2.475 Z M9.144,15.335 L11.813,15.335 L11.813,6.745 L9.144,6.745 L9.144,15.335 Z" id="Fill-2" fill="#FFFFFF"></path>
                <polyline id="Fill-3" fill="#FFFFFF" points="22.97 2.662 25.637 2.662 25.637 10.238 28.66 6.741 31.931 6.741 28.431 10.719 31.858 15.339 28.504 15.339 25.672 11.093 25.637 11.093 25.637 15.339 22.97 15.339 22.97 2.662"></polyline>
                <path d="M13.289,6.746 L15.852,6.746 L15.852,7.92 L15.887,7.92 C16.243,7.244 17.114,6.533 18.413,6.533 C21.119,6.533 21.616,8.312 21.616,10.625 L21.616,15.335 L18.947,15.335 L18.947,11.158 C18.947,10.161 18.929,8.881 17.559,8.881 C16.172,8.881 15.958,9.968 15.958,11.086 L15.958,15.335 L13.289,15.335 L13.289,6.746" id="Fill-4" fill="#FFFFFF"></path>
                <path d="M39.809,13.848 C38.953,14.934 37.548,15.557 36.161,15.557 C33.492,15.557 31.357,13.777 31.357,11.019 C31.357,8.262 33.492,6.483 36.161,6.483 C38.652,6.483 40.218,8.262 40.218,11.019 L40.218,11.855 L34.026,11.855 C34.238,12.87 35.005,13.527 36.036,13.527 C36.909,13.527 37.495,13.084 37.939,12.479 L39.809,13.848 Z M37.548,10.041 C37.566,9.152 36.872,8.404 35.91,8.404 C34.737,8.404 34.097,9.205 34.026,10.041 L37.548,10.041 L37.548,10.041 Z" id="Fill-5" fill="#FFFFFF"></path>
                <g id="Group-9" transform="translate(40.000000, 0.000000)">
                    <mask id="mask-2" fill="white">
                        <use xlink:href="#path-1"></use>
                    </mask>
                    <g id="Clip-7"></g>
                    <path d="M10.369,15.333 L7.912,15.333 L7.912,14.194 L7.877,14.194 C7.467,14.818 6.436,15.547 5.226,15.547 C2.663,15.547 0.973,13.697 0.973,11.081 C0.973,8.68 2.468,6.474 4.923,6.474 C6.027,6.474 7.059,6.776 7.663,7.612 L7.698,7.612 L7.698,2.662 L10.369,2.662 L10.369,15.333 Z M5.776,8.822 C4.443,8.822 3.642,9.713 3.642,11.01 C3.642,12.311 4.443,13.198 5.776,13.198 C7.112,13.198 7.912,12.311 7.912,11.01 C7.912,9.713 7.112,8.822 5.776,8.822 L5.776,8.822 Z" id="Fill-6" fill="#FFFFFF" mask="url(#mask-2)"></path>
                    <path d="M28.375,15.339 L25.708,15.339 L25.708,11.162 C25.708,10.165 25.688,8.884 24.32,8.884 C22.932,8.884 22.72,9.969 22.72,11.089 L22.72,15.339 L20.053,15.339 L20.053,6.749 L22.611,6.749 L22.611,7.922 L22.648,7.922 C23.005,7.247 23.876,6.535 25.175,6.535 C27.876,6.535 28.375,8.314 28.375,10.628 L28.375,15.339 Z M17.042,5.574 C16.185,5.574 15.493,4.881 15.493,4.026 C15.493,3.172 16.185,2.479 17.042,2.479 C17.896,2.479 18.59,3.172 18.59,4.026 C18.59,4.881 17.896,5.574 17.042,5.574 Z M15.705,15.339 L18.378,15.339 L18.378,6.749 L15.705,6.749 L15.705,15.339 Z M29.705,0 L14.365,0 C13.634,0 13.038,0.582 13.038,1.297 L13.038,16.702 C13.038,17.42 13.634,18 14.365,18 L29.705,18 C30.439,18 31.038,17.42 31.038,16.702 L31.038,1.297 C31.038,0.582 30.439,0 29.705,0 L29.705,0 Z" id="Fill-8" fill="#FFFFFF" mask="url(#mask-2)"></path>
                </g>
                <polyline id="Fill-10" fill="#FFFFFF" points="72.236 13.428 72.849 13.428 72.849 15.339 73.183 15.339 73.183 13.428 73.795 13.428 73.795 13.095 72.236 13.095 72.236 13.428"></polyline>
                <polyline id="Fill-11" fill="#FFFFFF" points="75.963 13.095 75.308 14.742 74.653 13.095 74.179 13.095 74.179 15.339 74.51 15.339 74.51 13.631 75.197 15.339 75.419 15.339 76.105 13.631 76.105 15.339 76.437 15.339 76.437 13.095 75.963 13.095"></polyline>
            </g>
        </g>
    </g>
</svg>