<svg width="220" height="72" viewBox="0 0 220 72" fill="none" xmlns="http://www.w3.org/2000/svg">
<path fill-rule="evenodd" clip-rule="evenodd" d="M186.785 63.7703H186.651V64.0977H186.785C186.893 64.0977 186.978 64.0399 186.978 63.9318C186.978 63.8236 186.893 63.7703 186.785 63.7703ZM187.135 64.3482L187.498 64.9322H187.009L186.727 64.4472H186.651V64.9322H186.229V63.4064H186.826C187.167 63.4064 187.409 63.5952 187.409 63.918C187.409 64.1107 187.31 64.2591 187.135 64.3482ZM185.646 64.1693C185.646 64.8157 186.157 65.3403 186.789 65.3403C187.422 65.3403 187.933 64.8157 187.933 64.1693C187.933 63.5229 187.422 62.9983 186.789 62.9983C186.157 62.9983 185.646 63.5229 185.646 64.1693ZM188.414 64.1693C188.414 65.0669 187.687 65.7979 186.789 65.7979C185.892 65.7979 185.166 65.0669 185.166 64.1693C185.166 63.2724 185.892 62.5407 186.789 62.5407C187.687 62.5407 188.414 63.2724 188.414 64.1693V64.1693Z" fill="#FFFFFE"/>
<path fill-rule="evenodd" clip-rule="evenodd" d="M32 62.563H33.8161V66.0474H37.1839V62.563H39V71.563H37.1839V67.8988H33.8161V71.563H32V62.563" fill="#FFFFFE"/>
<path fill-rule="evenodd" clip-rule="evenodd" d="M47.0893 64.2904C45.664 64.2904 44.5502 65.44 44.5502 66.8889C44.5502 68.3378 45.664 69.4874 47.0893 69.4874C48.5138 69.4874 49.6277 68.3378 49.6277 66.8889C49.6277 65.44 48.5138 64.2904 47.0893 64.2904ZM47.0892 71.2355C44.646 71.2355 42.7061 69.307 42.7061 66.8889C42.7061 64.4693 44.646 62.5415 47.0892 62.5415C49.5317 62.5415 51.4716 64.4693 51.4716 66.8889C51.4716 69.307 49.5317 71.2355 47.0892 71.2355V71.2355Z" fill="#FFFFFE"/>
<path fill-rule="evenodd" clip-rule="evenodd" d="M56.7973 65.5979V71.563H55V62.563H56.9335L59.5309 66.8444L62.1166 62.563H64V71.563H62.2027V65.5717L59.999 69.1976H58.9892L56.7973 65.5979" fill="#FFFFFE"/>
<path fill-rule="evenodd" clip-rule="evenodd" d="M68 62.563H72.9754V64.3113H69.8113V66.1373H72.6975V67.8342H69.8113V69.8138H73V71.563H68V62.563" fill="#FFFFFE"/>
<path fill-rule="evenodd" clip-rule="evenodd" d="M87.4768 66.5288H88.4955C89.2134 66.5288 89.7403 66.1222 89.7403 65.4149C89.7403 64.6962 89.2134 64.3132 88.4955 64.3132H87.4768V66.5288ZM87.4767 71.0794H85.6929V62.6961H88.4833C90.2915 62.6961 91.5485 63.6668 91.5485 65.3791C91.5485 66.5767 90.8306 67.415 89.824 67.798L92.1355 71.0794H90.0159L87.9564 68.0134H87.4767V71.0794V71.0794Z" fill="#FFFFFE"/>
<path fill-rule="evenodd" clip-rule="evenodd" d="M96 62.563H99.9803V64.3122H97.4496V66.1373H99.758V67.8342H97.4496V69.8138H100V71.563H96V62.563" fill="#FFFFFE"/>
<path fill-rule="evenodd" clip-rule="evenodd" d="M105.797 65.5971V71.563H104V62.563H105.934L108.531 66.8444L111.117 62.563H113V71.563H111.203V65.5725L108.999 69.1976H107.99L105.797 65.5971" fill="#FFFFFE"/>
<path fill-rule="evenodd" clip-rule="evenodd" d="M121.236 64.2896C119.811 64.2896 118.697 65.4393 118.697 66.8881C118.697 68.337 119.811 69.4867 121.236 69.4867C122.662 69.4867 123.775 68.337 123.775 66.8881C123.775 65.4393 122.662 64.2896 121.236 64.2896ZM121.236 71.2348C118.793 71.2348 116.853 69.307 116.853 66.8881C116.853 64.4685 118.793 62.5407 121.236 62.5407C123.679 62.5407 125.619 64.4685 125.619 66.8881C125.619 69.307 123.679 71.2348 121.236 71.2348V71.2348Z" fill="#FFFFFE"/>
<path fill-rule="evenodd" clip-rule="evenodd" d="M132.182 64.3848H131.188V69.3907H132.182C133.571 69.3907 134.649 68.2776 134.649 66.8881C134.649 65.4994 133.571 64.3848 132.182 64.3848ZM132.23 71.0794H129.391V62.6961H132.23C134.577 62.6961 136.493 64.5287 136.493 66.8881C136.493 69.2476 134.577 71.0794 132.23 71.0794V71.0794Z" fill="#FFFFFE"/>
<path fill-rule="evenodd" clip-rule="evenodd" d="M140 62.563H144.975V64.3122H141.812V66.1373H144.697V67.8342H141.812V69.8138H145V71.563H140V62.563" fill="#FFFFFE"/>
<path fill-rule="evenodd" clip-rule="evenodd" d="M150.903 62.563V69.7501H154V71.563H149V62.563H150.903" fill="#FFFFFE"/>
<path fill-rule="evenodd" clip-rule="evenodd" d="M157 71.563H159V62.563H157V71.563Z" fill="#FFFFFE"/>
<path fill-rule="evenodd" clip-rule="evenodd" d="M171 62.563V71.563H169.079L164.869 65.6232V71.563H163V62.563H164.958L169.131 68.5289V62.563H171" fill="#FFFFFE"/>
<path fill-rule="evenodd" clip-rule="evenodd" d="M180.423 68.129H178.678V66.5298H182V70.6338C181.251 71.2154 180.322 71.563 179.205 71.563C176.755 71.563 175 69.8527 175 67.1131C175 64.535 176.755 62.563 179.316 62.563C180.166 62.563 181.161 62.7987 181.844 63.2818V65.3279C181.161 64.7454 180.356 64.323 179.328 64.323C177.717 64.323 176.7 65.5139 176.7 67.1131C176.7 68.7611 177.784 69.8275 179.227 69.8275C179.719 69.8275 180.144 69.7029 180.423 69.5548V68.129" fill="#FFFFFE"/>
<path fill-rule="evenodd" clip-rule="evenodd" d="M58.766 49.7886C42.0358 49.7886 39.7783 37.2048 39.7783 24.8936C39.7783 19.5625 40.1468 12.7947 43.0111 7.76135C45.9827 2.53915 51.1364 0 58.7622 0C75.4924 0 77.7483 12.5846 77.7483 24.8936C77.7483 30.2269 77.389 36.9947 74.5156 42.0281C71.544 47.2495 66.3903 49.7886 58.7645 49.7886M58.766 10.9933C52.481 10.9933 51.4181 15.2798 51.4181 24.8936C51.4181 34.5081 52.481 38.7976 58.766 38.7976C65.0511 38.7976 66.1102 34.5096 66.1102 24.8936C66.1102 15.2775 65.0511 10.9933 58.766 10.9933" fill="#FFFFFE"/>
<path fill-rule="evenodd" clip-rule="evenodd" d="M91.2792 48.563C91.1657 48.563 91.0576 48.5134 90.9848 48.4276C90.9135 48.3396 90.8859 48.2245 90.9089 48.1139L91.5797 45.0982V45.0892L82.0099 2.01358C81.9831 1.90301 82.0115 1.78716 82.0858 1.70141C82.1587 1.61415 82.2668 1.5645 82.381 1.5645H93.6643C93.8499 1.56375 94.0086 1.69389 94.04 1.87292L97.9915 22.9654C97.9992 22.997 98.0322 23.0158 98.0636 23.0083C98.0851 23.003 98.1019 22.9865 98.1073 22.9654L102.946 5.1233L102.255 2.01509C102.23 1.90526 102.257 1.79017 102.329 1.70291C102.402 1.61641 102.511 1.56601 102.626 1.56601H113.916C114.101 1.56526 114.26 1.69614 114.291 1.87517L118.249 22.9744C118.254 23.0053 118.284 23.0263 118.316 23.0203C118.34 23.0166 118.359 22.9978 118.363 22.9744L123.198 5.11653C123.199 5.11277 123.199 5.10901 123.198 5.10524L122.509 2.00982C122.467 1.80823 122.6 1.61114 122.805 1.57052C122.831 1.56526 122.856 1.563 122.881 1.563H133.606C133.725 1.56375 133.837 1.61415 133.915 1.70141C133.99 1.78942 134.017 1.90752 133.99 2.01885L122.681 48.1884C122.672 48.2275 122.582 48.5592 122.294 48.5592H111.524C111.41 48.56 111.302 48.5103 111.229 48.4246C111.157 48.3358 111.129 48.2207 111.153 48.1102L111.824 45.0945V45.0839L107.768 28.5116C107.751 28.4627 107.696 28.4371 107.646 28.4544C107.619 28.4634 107.597 28.4845 107.587 28.5116L102.436 48.1884C102.4 48.3922 102.227 48.5449 102.017 48.5577L91.2792 48.563" fill="#FFFFFE"/>
<path fill-rule="evenodd" clip-rule="evenodd" d="M140.306 48.6687C140.097 48.6687 139.928 48.5004 139.927 48.2926C139.927 48.2652 139.93 48.2385 139.936 48.2119L140.6 45.1596V4.62376L139.936 1.57145C139.893 1.36741 140.024 1.16793 140.227 1.1253C140.253 1.11997 140.279 1.11692 140.306 1.11692H171.212C171.423 1.11692 171.595 1.2867 171.597 1.4976V11.7334C171.595 11.9443 171.423 12.1141 171.212 12.1141H151.926V18.6481H169.39C169.601 18.6473 169.773 18.8179 169.774 19.0288C169.774 19.0295 169.774 19.0303 169.774 19.0311V29.3201C169.773 29.5318 169.601 29.7023 169.39 29.7023H151.926V37.6731H171.212C171.424 37.6723 171.596 37.8428 171.597 38.0537V48.2895C171.596 48.5012 171.424 48.6717 171.212 48.6717H140.306V48.6687" fill="#FFFFFE"/>
<path fill-rule="evenodd" clip-rule="evenodd" d="M0.377637 48.6649C0.169784 48.6649 0.000761364 48.4966 0 48.2888C0 48.2621 0.00228409 48.2362 0.00837501 48.2103L0.686751 45.1002V4.69762L0.00837501 1.58973C-0.0144659 1.47781 0.0129432 1.36284 0.0837501 1.273C0.15608 1.18544 0.264193 1.13443 0.377637 1.13519H17.031C23.8238 1.13519 28.7209 3.18022 31.5905 7.21164C34.0216 10.6233 34.3847 14.7233 34.3847 16.8596C34.3847 18.9968 34.0254 23.1143 31.5882 26.5472C28.7156 30.5947 23.8238 32.6526 17.031 32.6526H12.2009V48.3002C12.1993 48.5118 12.0273 48.6816 11.8164 48.6809L0.377637 48.6649ZM12.2008 21.5809H17.0956C20.687 21.5809 22.432 20.0345 22.432 16.849C22.432 15.678 22.432 12.1156 17.0956 12.1156H12.2008V21.5809V21.5809Z" fill="#FFFFFE"/>
<path fill-rule="evenodd" clip-rule="evenodd" d="M205.458 48.6466C205.344 48.6481 205.235 48.5964 205.165 48.5065C205.093 48.419 205.065 48.3032 205.088 48.1921L205.492 46.3374L197.963 31.1192H193.432V48.2621C193.431 48.4745 193.258 48.6458 193.046 48.6451H181.734C181.62 48.6451 181.513 48.5941 181.441 48.5065C181.371 48.4174 181.342 48.3017 181.365 48.1906L182.034 45.1253V4.62377L181.369 1.55166C181.326 1.34914 181.454 1.14966 181.657 1.1055C181.68 1.10093 181.704 1.09789 181.728 1.09713H198.5C210.171 1.09713 215.601 5.83814 215.601 16.0123C215.601 22.3742 213.907 26.1003 209.936 28.4667L209.64 28.6463L219.956 48.0832C220.018 48.202 220.014 48.3451 219.945 48.4601C219.873 48.572 219.749 48.6398 219.617 48.6398H205.443L205.458 48.6466ZM193.427 20.065H199.263C203.384 20.065 203.72 18.2316 203.72 16.0176C203.72 13.8629 203.384 12.0943 199.263 12.0943H193.427V20.065V20.065Z" fill="#FFFFFE"/>
</svg>
